G04*
G04 #@! TF.GenerationSoftware,Altium Limited,Altium Designer,24.1.2 (44)*
G04*
G04 Layer_Physical_Order=4*
G04 Layer_Color=16440176*
%FSLAX44Y44*%
%MOMM*%
G71*
G04*
G04 #@! TF.SameCoordinates,484C763D-0509-4B11-89FF-D8E859C25604*
G04*
G04*
G04 #@! TF.FilePolarity,Positive*
G04*
G01*
G75*
%ADD23C,4.0000*%
%ADD24C,0.6000*%
G36*
X375000Y325995D02*
Y324005D01*
Y280995D01*
Y279005D01*
Y220995D01*
Y219006D01*
Y175995D01*
Y174005D01*
Y100000D01*
X75000D01*
Y450000D01*
X189002D01*
X189761Y448168D01*
X190714Y447215D01*
X190993Y446000D01*
X190714Y444785D01*
X189761Y443832D01*
X189000Y441995D01*
Y440005D01*
X189761Y438168D01*
X190714Y437215D01*
X190993Y436000D01*
X190714Y434785D01*
X189761Y433832D01*
X189000Y431995D01*
Y430005D01*
X189761Y428168D01*
X191168Y426761D01*
X193005Y426000D01*
X194995D01*
X196832Y426761D01*
X198239Y428168D01*
X199000Y430005D01*
Y431995D01*
X198239Y433832D01*
X197286Y434785D01*
X197007Y436000D01*
X197286Y437215D01*
X198239Y438168D01*
X199000Y440005D01*
Y441995D01*
X198239Y443832D01*
X197286Y444785D01*
X197007Y446000D01*
X197286Y447215D01*
X198239Y448168D01*
X198998Y450000D01*
X375000D01*
Y325995D01*
D02*
G37*
%LPC*%
G36*
X285995Y422000D02*
X284006D01*
X282168Y421239D01*
X280761Y419832D01*
X280000Y417995D01*
Y416005D01*
X280761Y414168D01*
X282168Y412761D01*
X284006Y412000D01*
X285995D01*
X287832Y412761D01*
X289239Y414168D01*
X290000Y416005D01*
Y417995D01*
X289239Y419832D01*
X287832Y421239D01*
X285995Y422000D01*
D02*
G37*
G36*
X145225Y401050D02*
X143235D01*
X141398Y400289D01*
X139991Y398882D01*
X139230Y397045D01*
Y395055D01*
X139991Y393218D01*
X141398Y391811D01*
X143235Y391050D01*
X145225D01*
X147062Y391811D01*
X148469Y393218D01*
X149230Y395055D01*
Y397045D01*
X148469Y398882D01*
X147062Y400289D01*
X145225Y401050D01*
D02*
G37*
G36*
X120225Y388350D02*
X118235D01*
X116398Y387589D01*
X114991Y386182D01*
X114230Y384345D01*
Y382355D01*
X114991Y380518D01*
X116398Y379111D01*
X118235Y378350D01*
X120225D01*
X122062Y379111D01*
X123469Y380518D01*
X124230Y382355D01*
Y384345D01*
X123469Y386182D01*
X122062Y387589D01*
X120225Y388350D01*
D02*
G37*
G36*
Y375650D02*
X118235D01*
X116398Y374889D01*
X114991Y373482D01*
X114230Y371645D01*
Y370669D01*
X113559Y370167D01*
X112249Y369609D01*
X110773Y370221D01*
X108784D01*
X106946Y369459D01*
X105540Y368053D01*
X104778Y366215D01*
Y364226D01*
X105540Y362388D01*
X106492Y361436D01*
X106771Y360221D01*
X106492Y359005D01*
X105540Y358053D01*
X104778Y356215D01*
Y354226D01*
X105540Y352388D01*
X106492Y351436D01*
X106771Y350221D01*
X106492Y349005D01*
X105540Y348053D01*
X104778Y346215D01*
Y344226D01*
X105540Y342388D01*
X106492Y341436D01*
X106771Y340221D01*
X106492Y339005D01*
X105540Y338053D01*
X104778Y336215D01*
Y334226D01*
X105540Y332388D01*
X106946Y330982D01*
X108784Y330221D01*
X110773D01*
X112611Y330982D01*
X114017Y332388D01*
X114778Y334226D01*
Y336215D01*
X114017Y338053D01*
X113065Y339005D01*
X112786Y340221D01*
X113065Y341436D01*
X114017Y342388D01*
X116217Y342472D01*
X116520Y342169D01*
X118358Y341408D01*
X120347D01*
X122185Y342169D01*
X123591Y343575D01*
X124353Y345413D01*
Y347402D01*
X123591Y349240D01*
X122185Y350646D01*
X120347Y351408D01*
X118358D01*
X116520Y350646D01*
X116025Y350151D01*
X113567Y350334D01*
X113002Y351161D01*
X113065Y351436D01*
X114017Y352388D01*
X114778Y354226D01*
Y356215D01*
X114017Y358053D01*
X113065Y359005D01*
X112786Y360221D01*
X113065Y361436D01*
X114017Y362388D01*
X114778Y364226D01*
Y365202D01*
X115450Y365703D01*
X116759Y366261D01*
X118235Y365650D01*
X120225D01*
X122062Y366411D01*
X123469Y367818D01*
X124230Y369655D01*
Y371645D01*
X123469Y373482D01*
X122062Y374889D01*
X120225Y375650D01*
D02*
G37*
G36*
X197730Y362950D02*
X195741D01*
X193903Y362189D01*
X192496Y360782D01*
X191735Y358945D01*
Y356955D01*
X192496Y355118D01*
X193903Y353711D01*
X195741Y352950D01*
X197730D01*
X199567Y353711D01*
X200974Y355118D01*
X201735Y356955D01*
Y358945D01*
X200974Y360782D01*
X199567Y362189D01*
X197730Y362950D01*
D02*
G37*
G36*
X145225D02*
X143235D01*
X141398Y362189D01*
X139991Y360782D01*
X139230Y358945D01*
Y356955D01*
X139991Y355118D01*
X141398Y353711D01*
X143235Y352950D01*
X145225D01*
X147062Y353711D01*
X148469Y355118D01*
X149230Y356955D01*
Y358945D01*
X148469Y360782D01*
X147062Y362189D01*
X145225Y362950D01*
D02*
G37*
G36*
X245994Y331000D02*
X244005D01*
X242168Y330239D01*
X240761Y328832D01*
X240000Y326995D01*
Y325005D01*
X240761Y323168D01*
X242168Y321761D01*
X244005Y321000D01*
X245994D01*
X247832Y321761D01*
X249239Y323168D01*
X250000Y325005D01*
Y326995D01*
X249239Y328832D01*
X247832Y330239D01*
X245994Y331000D01*
D02*
G37*
G36*
X316935Y338678D02*
X314946D01*
X313108Y337916D01*
X311701Y336510D01*
X310940Y334672D01*
Y332683D01*
X311701Y330845D01*
X313108Y329439D01*
X314946Y328678D01*
X316935D01*
X318772Y329439D01*
X319954Y330620D01*
X321315Y329259D01*
X323152Y328498D01*
X323872D01*
X325222Y326531D01*
X325000Y325995D01*
Y324005D01*
X325761Y322168D01*
X326942Y320986D01*
X325582Y319625D01*
X324820Y317788D01*
Y315799D01*
X325582Y313961D01*
X326988Y312554D01*
X328826Y311793D01*
X330815D01*
X332653Y312554D01*
X334059Y313961D01*
X334820Y315799D01*
Y317788D01*
X334059Y319625D01*
X332878Y320807D01*
X334239Y322168D01*
X335000Y324005D01*
Y325995D01*
X334239Y327832D01*
X332832Y329239D01*
X330995Y330000D01*
X330275D01*
X328925Y331967D01*
X329147Y332503D01*
Y334492D01*
X328386Y336330D01*
X326979Y337737D01*
X325141Y338498D01*
X323152D01*
X321315Y337737D01*
X320133Y336555D01*
X318772Y337916D01*
X316935Y338678D01*
D02*
G37*
G36*
X199995Y318000D02*
X198005D01*
X196168Y317239D01*
X194761Y315832D01*
X194000Y313995D01*
Y312005D01*
X194761Y310168D01*
X196168Y308761D01*
X198005Y308000D01*
X199995D01*
X201832Y308761D01*
X203239Y310168D01*
X204000Y312005D01*
Y313995D01*
X203239Y315832D01*
X201832Y317239D01*
X199995Y318000D01*
D02*
G37*
G36*
X345995Y317000D02*
X344005D01*
X342168Y316239D01*
X340761Y314832D01*
X340000Y312995D01*
Y311005D01*
X340761Y309168D01*
X342168Y307761D01*
X344005Y307000D01*
X345995D01*
X347832Y307761D01*
X349239Y309168D01*
X350000Y311005D01*
Y312995D01*
X349239Y314832D01*
X347832Y316239D01*
X345995Y317000D01*
D02*
G37*
G36*
X255995Y299000D02*
X254005D01*
X252168Y298239D01*
X250761Y296832D01*
X250208Y295497D01*
X248995Y296000D01*
X247005D01*
X245168Y295239D01*
X243761Y293832D01*
X243000Y291995D01*
Y290005D01*
X243761Y288168D01*
X245168Y286761D01*
X247005Y286000D01*
X248995D01*
X250832Y286761D01*
X252239Y288168D01*
X252792Y289503D01*
X254005Y289000D01*
X255995D01*
X257832Y289761D01*
X259239Y291168D01*
X260000Y293005D01*
Y294995D01*
X259239Y296832D01*
X257832Y298239D01*
X255995Y299000D01*
D02*
G37*
G36*
X225410Y303915D02*
X223421D01*
X221583Y303154D01*
X220177Y301748D01*
X219415Y299910D01*
Y297921D01*
X220177Y296083D01*
X221583Y294676D01*
X223421Y293915D01*
X225410D01*
X227248Y294676D01*
X228654Y296083D01*
X229415Y297921D01*
Y299910D01*
X228654Y301748D01*
X227248Y303154D01*
X225410Y303915D01*
D02*
G37*
G36*
X121994Y295000D02*
X120005D01*
X118168Y294239D01*
X116761Y292832D01*
X116000Y290995D01*
Y289005D01*
X116761Y287168D01*
X118168Y285761D01*
X120005Y285000D01*
X121994D01*
X123832Y285761D01*
X125239Y287168D01*
X126000Y289005D01*
Y290995D01*
X125239Y292832D01*
X123832Y294239D01*
X121994Y295000D01*
D02*
G37*
G36*
X226995Y291000D02*
X225005D01*
X223168Y290239D01*
X221761Y288832D01*
X221000Y286995D01*
Y285005D01*
X221761Y283168D01*
X223168Y281761D01*
X225005Y281000D01*
X226995D01*
X228832Y281761D01*
X230239Y283168D01*
X231000Y285005D01*
Y286995D01*
X230239Y288832D01*
X228832Y290239D01*
X226995Y291000D01*
D02*
G37*
G36*
X206995Y270000D02*
X205005D01*
X203168Y269239D01*
X201761Y267832D01*
X201000Y265995D01*
Y264005D01*
X201761Y262168D01*
X203168Y260761D01*
X205005Y260000D01*
X206995D01*
X208832Y260761D01*
X210239Y262168D01*
X211000Y264005D01*
Y265995D01*
X210239Y267832D01*
X208832Y269239D01*
X206995Y270000D01*
D02*
G37*
G36*
X263995Y267000D02*
X262005D01*
X260168Y266239D01*
X258761Y264832D01*
X258000Y262995D01*
Y261005D01*
X258761Y259168D01*
X260168Y257761D01*
X262005Y257000D01*
X263995D01*
X265832Y257761D01*
X267239Y259168D01*
X268000Y261005D01*
Y262995D01*
X267239Y264832D01*
X265832Y266239D01*
X263995Y267000D01*
D02*
G37*
G36*
X238995D02*
X237005D01*
X235168Y266239D01*
X233761Y264832D01*
X233000Y262995D01*
Y261005D01*
X233761Y259168D01*
X235168Y257761D01*
X237005Y257000D01*
X238995D01*
X240832Y257761D01*
X242239Y259168D01*
X243000Y261005D01*
Y262995D01*
X242239Y264832D01*
X240832Y266239D01*
X238995Y267000D01*
D02*
G37*
G36*
X331088Y268342D02*
X329099D01*
X327261Y267581D01*
X325854Y266174D01*
X325093Y264337D01*
Y262348D01*
X325854Y260510D01*
X327036Y259328D01*
X325675Y257967D01*
X324913Y256130D01*
Y254141D01*
X325675Y252303D01*
X327081Y250896D01*
X328919Y250135D01*
X330908D01*
X332746Y250896D01*
X334152Y252303D01*
X334913Y254141D01*
Y256130D01*
X334152Y257967D01*
X332971Y259149D01*
X334332Y260510D01*
X335093Y262348D01*
Y264337D01*
X334332Y266174D01*
X332925Y267581D01*
X331088Y268342D01*
D02*
G37*
G36*
X312995Y252000D02*
X311005D01*
X309168Y251239D01*
X307761Y249832D01*
X307000Y247995D01*
Y246005D01*
X307761Y244168D01*
X309168Y242761D01*
X311005Y242000D01*
X312995D01*
X314832Y242761D01*
X316239Y244168D01*
X317000Y246005D01*
Y247995D01*
X316239Y249832D01*
X314832Y251239D01*
X312995Y252000D01*
D02*
G37*
G36*
X119994Y247000D02*
X118005D01*
X116168Y246239D01*
X114761Y244832D01*
X114000Y242995D01*
Y241005D01*
X114761Y239168D01*
X116168Y237761D01*
X118005Y237000D01*
X119994D01*
X121832Y237761D01*
X123239Y239168D01*
X124000Y241005D01*
Y242995D01*
X123239Y244832D01*
X121832Y246239D01*
X119994Y247000D01*
D02*
G37*
G36*
X263995Y244000D02*
X262005D01*
X260168Y243239D01*
X258761Y241832D01*
X258000Y239995D01*
Y238005D01*
X258761Y236168D01*
X260168Y234761D01*
X262005Y234000D01*
X263995D01*
X265832Y234761D01*
X267239Y236168D01*
X268000Y238005D01*
Y239995D01*
X267239Y241832D01*
X265832Y243239D01*
X263995Y244000D01*
D02*
G37*
G36*
X238995D02*
X237005D01*
X235168Y243239D01*
X233761Y241832D01*
X233000Y239995D01*
Y238005D01*
X233761Y236168D01*
X235168Y234761D01*
X237005Y234000D01*
X238995D01*
X240832Y234761D01*
X242239Y236168D01*
X243000Y238005D01*
Y239995D01*
X242239Y241832D01*
X240832Y243239D01*
X238995Y244000D01*
D02*
G37*
G36*
X329921Y243914D02*
X327932D01*
X326095Y243153D01*
X324688Y241746D01*
X323927Y239908D01*
Y237919D01*
X324688Y236081D01*
X325869Y234900D01*
X324508Y233539D01*
X323747Y231701D01*
Y229712D01*
X324508Y227875D01*
X325915Y226468D01*
X327753Y225707D01*
X329742D01*
X331580Y226468D01*
X332986Y227875D01*
X333747Y229712D01*
Y231701D01*
X332986Y233539D01*
X331805Y234720D01*
X333166Y236081D01*
X333927Y237919D01*
Y239908D01*
X333166Y241746D01*
X331759Y243153D01*
X329921Y243914D01*
D02*
G37*
G36*
X215995Y235000D02*
X214005D01*
X212168Y234239D01*
X210761Y232832D01*
X210000Y230995D01*
Y229005D01*
X210761Y227168D01*
X212168Y225761D01*
X214005Y225000D01*
X215995D01*
X217832Y225761D01*
X219239Y227168D01*
X220000Y229005D01*
Y230995D01*
X219239Y232832D01*
X217832Y234239D01*
X215995Y235000D01*
D02*
G37*
G36*
X178262Y230199D02*
X176273D01*
X174435Y229438D01*
X173029Y228031D01*
X172268Y226194D01*
Y224204D01*
X173029Y222367D01*
X174435Y220960D01*
X176273Y220199D01*
X178262D01*
X180100Y220960D01*
X181034Y221895D01*
X182168Y220761D01*
X184005Y220000D01*
X185995D01*
X187832Y220761D01*
X189239Y222168D01*
X190000Y224005D01*
Y225995D01*
X189239Y227832D01*
X187832Y229239D01*
X185995Y230000D01*
X184005D01*
X182168Y229239D01*
X181233Y228304D01*
X180100Y229438D01*
X178262Y230199D01*
D02*
G37*
G36*
X300245Y227750D02*
X298256D01*
X296418Y226989D01*
X295011Y225582D01*
X294250Y223745D01*
Y221756D01*
X295011Y219918D01*
X296418Y218511D01*
X298256Y217750D01*
X300245D01*
X302082Y218511D01*
X303489Y219918D01*
X304250Y221756D01*
Y223745D01*
X303489Y225582D01*
X302082Y226989D01*
X300245Y227750D01*
D02*
G37*
G36*
X278995Y226000D02*
X277005D01*
X275168Y225239D01*
X273761Y223832D01*
X273000Y221995D01*
Y220005D01*
X273761Y218168D01*
X275168Y216761D01*
X277005Y216000D01*
X278995D01*
X280832Y216761D01*
X282239Y218168D01*
X283000Y220005D01*
Y221995D01*
X282239Y223832D01*
X280832Y225239D01*
X278995Y226000D01*
D02*
G37*
G36*
X250035Y217000D02*
X248046D01*
X246208Y216239D01*
X244801Y214832D01*
X244040Y212995D01*
Y211005D01*
X244801Y209168D01*
X246208Y207761D01*
X248046Y207000D01*
X250035D01*
X251872Y207761D01*
X253279Y209168D01*
X254040Y211005D01*
Y212995D01*
X253279Y214832D01*
X251872Y216239D01*
X250035Y217000D01*
D02*
G37*
G36*
X342362Y218449D02*
X340373D01*
X338535Y217687D01*
X337129Y216281D01*
X336368Y214443D01*
Y212454D01*
X337129Y210616D01*
X338310Y209435D01*
X336949Y208074D01*
X336188Y206236D01*
Y204247D01*
X336949Y202409D01*
X338356Y201003D01*
X340194Y200242D01*
X342183D01*
X344020Y201003D01*
X345427Y202409D01*
X346188Y204247D01*
Y206236D01*
X345427Y208074D01*
X344246Y209255D01*
X345607Y210616D01*
X346368Y212454D01*
Y214443D01*
X345607Y216281D01*
X344200Y217687D01*
X342362Y218449D01*
D02*
G37*
G36*
X229995Y207000D02*
X228005D01*
X226168Y206239D01*
X224761Y204832D01*
X224000Y202995D01*
Y201005D01*
X224761Y199168D01*
X226168Y197761D01*
X228005Y197000D01*
X229995D01*
X231832Y197761D01*
X233239Y199168D01*
X234000Y201005D01*
Y202995D01*
X233239Y204832D01*
X231832Y206239D01*
X229995Y207000D01*
D02*
G37*
G36*
X138427Y214455D02*
X136438D01*
X134601Y213694D01*
X133194Y212287D01*
X132433Y210450D01*
Y208460D01*
X133194Y206623D01*
X134146Y205670D01*
X134426Y204455D01*
X134146Y203239D01*
X133194Y202287D01*
X132433Y200450D01*
Y198460D01*
X133194Y196623D01*
X134146Y195670D01*
X134426Y194455D01*
X134146Y193239D01*
X133194Y192287D01*
X132433Y190450D01*
Y188460D01*
X133194Y186623D01*
X134601Y185216D01*
X136438Y184455D01*
X138427D01*
X140265Y185216D01*
X141672Y186623D01*
X142433Y188460D01*
Y190450D01*
X141672Y192287D01*
X140719Y193239D01*
X140440Y194455D01*
X140719Y195670D01*
X141672Y196623D01*
X142433Y198460D01*
Y200450D01*
X141672Y202287D01*
X140719Y203239D01*
X140440Y204455D01*
X140719Y205670D01*
X141672Y206623D01*
X142433Y208460D01*
Y210450D01*
X141672Y212287D01*
X140265Y213694D01*
X138427Y214455D01*
D02*
G37*
G36*
X348995Y185000D02*
X347006D01*
X345168Y184239D01*
X343761Y182832D01*
X343000Y180995D01*
Y179005D01*
X343761Y177168D01*
X345168Y175761D01*
X347006Y175000D01*
X348995D01*
X350832Y175761D01*
X352239Y177168D01*
X353000Y179005D01*
Y180995D01*
X352239Y182832D01*
X350832Y184239D01*
X348995Y185000D01*
D02*
G37*
G36*
X312995Y176000D02*
X311005D01*
X309168Y175239D01*
X307761Y173832D01*
X307000Y171995D01*
Y170005D01*
X307761Y168168D01*
X309168Y166761D01*
X311005Y166000D01*
X312995D01*
X314832Y166761D01*
X316239Y168168D01*
X317000Y170005D01*
Y171995D01*
X316239Y173832D01*
X314832Y175239D01*
X312995Y176000D01*
D02*
G37*
G36*
X205245Y175250D02*
X203255D01*
X201418Y174489D01*
X200011Y173082D01*
X199250Y171245D01*
Y169255D01*
X200011Y167418D01*
X201418Y166011D01*
X203255Y165250D01*
X205245D01*
X207082Y166011D01*
X208489Y167418D01*
X209250Y169255D01*
Y171245D01*
X208489Y173082D01*
X207082Y174489D01*
X205245Y175250D01*
D02*
G37*
G36*
X143225Y173050D02*
X141235D01*
X139398Y172289D01*
X137991Y170882D01*
X137230Y169045D01*
Y167055D01*
X137991Y165218D01*
X139398Y163811D01*
X141235Y163050D01*
X143225D01*
X145062Y163811D01*
X146469Y165218D01*
X147230Y167055D01*
Y169045D01*
X146469Y170882D01*
X145062Y172289D01*
X143225Y173050D01*
D02*
G37*
G36*
X118671Y160178D02*
X116682D01*
X114845Y159417D01*
X113438Y158011D01*
X112677Y156173D01*
Y154184D01*
X113438Y152346D01*
X114845Y150940D01*
X116682Y150178D01*
X118671D01*
X120509Y150940D01*
X121916Y152346D01*
X122677Y154184D01*
Y156173D01*
X121916Y158011D01*
X120509Y159417D01*
X118671Y160178D01*
D02*
G37*
G36*
X266995Y156500D02*
X265005D01*
X263168Y155739D01*
X261761Y154332D01*
X261000Y152494D01*
Y150505D01*
X261761Y148668D01*
X263168Y147261D01*
X265005Y146500D01*
X266995D01*
X268832Y147261D01*
X270239Y148668D01*
X271000Y150505D01*
Y152494D01*
X270239Y154332D01*
X268832Y155739D01*
X266995Y156500D01*
D02*
G37*
G36*
X118671Y147478D02*
X116682D01*
X114845Y146717D01*
X113438Y145311D01*
X112677Y143473D01*
Y142497D01*
X112005Y141996D01*
X110696Y141438D01*
X109220Y142049D01*
X107231D01*
X105393Y141288D01*
X103987Y139881D01*
X103225Y138044D01*
Y136054D01*
X103987Y134217D01*
X104939Y133265D01*
X105218Y132049D01*
X104939Y130834D01*
X103987Y129881D01*
X103225Y128044D01*
Y126054D01*
X103987Y124217D01*
X104939Y123265D01*
X105218Y122049D01*
X104939Y120834D01*
X103987Y119881D01*
X103225Y118044D01*
Y116054D01*
X103987Y114217D01*
X104939Y113265D01*
X105218Y112049D01*
X104939Y110834D01*
X103987Y109881D01*
X103225Y108044D01*
Y106054D01*
X103987Y104217D01*
X105393Y102810D01*
X107231Y102049D01*
X109220D01*
X111058Y102810D01*
X112464Y104217D01*
X113225Y106054D01*
Y108044D01*
X112464Y109881D01*
X111512Y110834D01*
X111233Y112049D01*
X111512Y113265D01*
X112464Y114217D01*
X114664Y114301D01*
X114967Y113997D01*
X116805Y113236D01*
X118794D01*
X120632Y113997D01*
X122038Y115404D01*
X122800Y117241D01*
Y119231D01*
X122038Y121068D01*
X120632Y122475D01*
X118794Y123236D01*
X116805D01*
X114967Y122475D01*
X114472Y121980D01*
X112014Y122162D01*
X111449Y122989D01*
X111512Y123265D01*
X112464Y124217D01*
X113225Y126054D01*
Y128044D01*
X112464Y129881D01*
X111512Y130834D01*
X111233Y132049D01*
X111512Y133265D01*
X112464Y134217D01*
X113225Y136054D01*
Y137030D01*
X113897Y137532D01*
X115206Y138090D01*
X116682Y137479D01*
X118671D01*
X120509Y138240D01*
X121916Y139646D01*
X122677Y141484D01*
Y143473D01*
X121916Y145311D01*
X120509Y146717D01*
X118671Y147478D01*
D02*
G37*
G36*
X195995Y137000D02*
X194005D01*
X192168Y136239D01*
X190761Y134832D01*
X190000Y132995D01*
Y131005D01*
X190761Y129168D01*
X192168Y127761D01*
X194005Y127000D01*
X195995D01*
X197832Y127761D01*
X199239Y129168D01*
X200000Y131005D01*
Y132995D01*
X199239Y134832D01*
X197832Y136239D01*
X195995Y137000D01*
D02*
G37*
G36*
X143225Y134950D02*
X141235D01*
X139398Y134189D01*
X137991Y132782D01*
X137230Y130945D01*
Y128955D01*
X137991Y127118D01*
X139398Y125711D01*
X141235Y124950D01*
X143225D01*
X145062Y125711D01*
X146469Y127118D01*
X147230Y128955D01*
Y130945D01*
X146469Y132782D01*
X145062Y134189D01*
X143225Y134950D01*
D02*
G37*
%LPD*%
D23*
X452000Y357000D02*
D03*
X455000Y143000D02*
D03*
X450000Y300000D02*
D03*
X451000Y200000D02*
D03*
X50000D02*
D03*
Y300000D02*
D03*
D24*
X117677Y142479D02*
D03*
Y155178D02*
D03*
X108225Y137049D02*
D03*
Y127049D02*
D03*
Y117049D02*
D03*
Y107049D02*
D03*
X117800Y118236D02*
D03*
X119353Y346408D02*
D03*
X109778Y335221D02*
D03*
Y345221D02*
D03*
Y355221D02*
D03*
Y365221D02*
D03*
X185000Y225000D02*
D03*
X177268Y225199D02*
D03*
X324147Y333498D02*
D03*
X315940Y333678D02*
D03*
X341368Y213449D02*
D03*
X341188Y205242D02*
D03*
X328927Y238914D02*
D03*
X328747Y230707D02*
D03*
X330093Y263342D02*
D03*
X329913Y255135D02*
D03*
X329820Y316793D02*
D03*
X380000Y175000D02*
D03*
Y220000D02*
D03*
X405000Y190000D02*
D03*
Y205000D02*
D03*
X395000Y220000D02*
D03*
X392200Y174583D02*
D03*
Y279583D02*
D03*
X395000Y325000D02*
D03*
X405000Y310000D02*
D03*
Y295000D02*
D03*
X380000Y325000D02*
D03*
X137433Y199455D02*
D03*
Y189455D02*
D03*
Y209455D02*
D03*
X194000Y431000D02*
D03*
Y451000D02*
D03*
X280000Y280000D02*
D03*
X263000Y262000D02*
D03*
Y239000D02*
D03*
X238000D02*
D03*
Y262000D02*
D03*
X206000Y265000D02*
D03*
X226000Y286000D02*
D03*
X215000Y257000D02*
D03*
X330000Y325000D02*
D03*
X380000Y280000D02*
D03*
X285000Y417000D02*
D03*
X348000Y180000D02*
D03*
X278000Y221000D02*
D03*
X266000Y151500D02*
D03*
X255000Y294000D02*
D03*
X245000Y326000D02*
D03*
X248000Y291000D02*
D03*
X194000Y441000D02*
D03*
X119230Y383350D02*
D03*
Y370650D02*
D03*
X387000Y112000D02*
D03*
X215000Y230000D02*
D03*
X312000Y247000D02*
D03*
X345000Y312000D02*
D03*
X196735Y357950D02*
D03*
X195000Y132000D02*
D03*
X142230Y168050D02*
D03*
Y129950D02*
D03*
X144230Y357950D02*
D03*
Y396050D02*
D03*
X249000Y144000D02*
D03*
X121000Y290000D02*
D03*
X286000Y370000D02*
D03*
X296000Y390000D02*
D03*
X282000Y322000D02*
D03*
X289000Y143000D02*
D03*
X120000Y338000D02*
D03*
Y313000D02*
D03*
X119000Y242000D02*
D03*
X199000Y313000D02*
D03*
X224415Y298915D02*
D03*
X120000Y266000D02*
D03*
X299250Y222750D02*
D03*
X312000Y171000D02*
D03*
X249040Y212000D02*
D03*
X204250Y170250D02*
D03*
X229000Y202000D02*
D03*
M02*
