G04*
G04 #@! TF.GenerationSoftware,Altium Limited,Altium Designer,24.1.2 (44)*
G04*
G04 Layer_Color=128*
%FSLAX44Y44*%
%MOMM*%
G71*
G04*
G04 #@! TF.SameCoordinates,484C763D-0509-4B11-89FF-D8E859C25604*
G04*
G04*
G04 #@! TF.FilePolarity,Positive*
G04*
G01*
G75*
%ADD30R,0.2300X0.6000*%
%ADD31R,0.6000X0.2300*%
%ADD32R,3.3000X3.3000*%
%ADD33R,1.3000X0.7000*%
%ADD34R,0.9000X1.3000*%
%ADD35R,0.9000X1.6000*%
%ADD36R,0.7000X1.3000*%
D30*
X267500Y274000D02*
D03*
X262500D02*
D03*
X247500D02*
D03*
X242500D02*
D03*
X237500D02*
D03*
X232500D02*
D03*
Y226000D02*
D03*
X237500D02*
D03*
X242500D02*
D03*
X247500D02*
D03*
X252500D02*
D03*
X257500D02*
D03*
X262500D02*
D03*
X267500D02*
D03*
X252500Y274000D02*
D03*
X257500D02*
D03*
D31*
X226000Y267500D02*
D03*
Y262500D02*
D03*
Y247500D02*
D03*
Y242500D02*
D03*
Y237500D02*
D03*
Y232500D02*
D03*
X274000Y237500D02*
D03*
Y242500D02*
D03*
Y247500D02*
D03*
Y252500D02*
D03*
Y257500D02*
D03*
Y262500D02*
D03*
Y267500D02*
D03*
X226000Y252500D02*
D03*
Y257500D02*
D03*
X274000Y232500D02*
D03*
D32*
X250000Y250000D02*
D03*
D33*
X243000Y179500D02*
D03*
Y160500D02*
D03*
X266000Y179500D02*
D03*
Y160500D02*
D03*
X289000Y179500D02*
D03*
Y160500D02*
D03*
X312000Y160500D02*
D03*
Y179500D02*
D03*
X335000Y160500D02*
D03*
Y179500D02*
D03*
X257000Y307000D02*
D03*
Y326000D02*
D03*
D34*
X300500Y259000D02*
D03*
X319500D02*
D03*
X300500Y235000D02*
D03*
X319500D02*
D03*
X299500Y321000D02*
D03*
X318500D02*
D03*
X300500Y348000D02*
D03*
X319500D02*
D03*
X204500Y186000D02*
D03*
X185500D02*
D03*
X200000Y235000D02*
D03*
X181000D02*
D03*
X180500Y301500D02*
D03*
X199500D02*
D03*
D35*
X299500Y209000D02*
D03*
X330500D02*
D03*
D36*
X318500Y372000D02*
D03*
X299500D02*
D03*
X254500Y347000D02*
D03*
X273500D02*
D03*
X254500Y370000D02*
D03*
X273500D02*
D03*
X254500Y394000D02*
D03*
X273500D02*
D03*
X254500Y418000D02*
D03*
X273500D02*
D03*
X184500Y211000D02*
D03*
X203500D02*
D03*
X200500Y277500D02*
D03*
X181500D02*
D03*
X157500Y242000D02*
D03*
X138500D02*
D03*
X157500Y266000D02*
D03*
X138500D02*
D03*
X138500Y290000D02*
D03*
X157500D02*
D03*
X158500Y314000D02*
D03*
X139500D02*
D03*
X158500Y338000D02*
D03*
X139500D02*
D03*
M02*
