G04*
G04 #@! TF.GenerationSoftware,Altium Limited,Altium Designer,24.1.2 (44)*
G04*
G04 Layer_Color=65535*
%FSLAX44Y44*%
%MOMM*%
G71*
G04*
G04 #@! TF.SameCoordinates,484C763D-0509-4B11-89FF-D8E859C25604*
G04*
G04*
G04 #@! TF.FilePolarity,Positive*
G04*
G01*
G75*
%ADD10C,0.2000*%
%ADD11C,0.2540*%
D10*
X151825Y174000D02*
G03*
X158175Y174000I3175J0D01*
G01*
X153825Y402000D02*
G03*
X160175Y402000I3175J0D01*
G01*
X135000Y174000D02*
X151825D01*
X158175D02*
X175000D01*
X135000Y124000D02*
X175000D01*
X137000Y352000D02*
X177000D01*
X160175Y402000D02*
X177000D01*
X137000D02*
X153825D01*
X358000Y381000D02*
X414000D01*
Y279000D02*
Y381000D01*
X358000Y279000D02*
X414000D01*
X358000D02*
Y381000D01*
Y386000D02*
X414000D01*
Y381000D02*
Y386000D01*
X358000Y381000D02*
Y386000D01*
X210000Y162000D02*
Y193000D01*
X336000Y162000D02*
Y193000D01*
X210000Y67000D02*
Y98000D01*
X336000Y67000D02*
Y98000D01*
X210000Y67000D02*
X336000D01*
X210000Y193000D02*
X336000D01*
X190000Y425000D02*
Y457000D01*
X142000Y425000D02*
X190000D01*
X142000D02*
Y457000D01*
X190000D01*
X358000Y119000D02*
X414000D01*
X358000D02*
Y221000D01*
X414000D01*
Y119000D02*
Y221000D01*
X358000Y114000D02*
X414000D01*
X358000D02*
Y119000D01*
X414000Y114000D02*
Y119000D01*
X336000Y307000D02*
Y338000D01*
X210000Y307000D02*
Y338000D01*
X336000Y402000D02*
Y433000D01*
X210000Y402000D02*
Y433000D01*
X336000D01*
X210000Y307000D02*
X336000D01*
X142000Y184000D02*
X190000D01*
Y216000D01*
X142000D02*
X190000D01*
X142000Y184000D02*
Y216000D01*
D11*
X119540Y179460D02*
Y176461D01*
Y177961D01*
X128537D01*
X127038Y179460D01*
X121540Y407460D02*
Y404461D01*
Y405961D01*
X130537D01*
X129038Y407460D01*
X378113Y271078D02*
X375574Y273617D01*
X370495D01*
X367956Y271078D01*
Y260922D01*
X370495Y258382D01*
X375574D01*
X378113Y260922D01*
X383191Y258382D02*
X388270D01*
X385730D01*
Y273617D01*
X383191Y271078D01*
X395887D02*
X398426Y273617D01*
X403505D01*
X406044Y271078D01*
Y260922D01*
X403505Y258382D01*
X398426D01*
X395887Y260922D01*
Y271078D01*
X430158Y397775D02*
X425079D01*
X422540Y395236D01*
Y385079D01*
X425079Y382540D01*
X430158D01*
X432697Y385079D01*
Y395236D01*
X430158Y397775D01*
X437775D02*
Y385079D01*
X440314Y382540D01*
X445393D01*
X447932Y385079D01*
Y397775D01*
X453010D02*
X463167D01*
X458088D01*
Y382540D01*
X478402D02*
X468245D01*
X478402Y392697D01*
Y395236D01*
X475863Y397775D01*
X470784D01*
X468245Y395236D01*
X441697Y272236D02*
X439157Y274775D01*
X434079D01*
X431540Y272236D01*
Y262079D01*
X434079Y259540D01*
X439157D01*
X441697Y262079D01*
Y267157D01*
X436618D01*
X446775Y259540D02*
Y274775D01*
X456932Y259540D01*
Y274775D01*
X462010D02*
Y259540D01*
X469628D01*
X472167Y262079D01*
Y272236D01*
X469628Y274775D01*
X462010D01*
X441697Y237236D02*
X439157Y239775D01*
X434079D01*
X431540Y237236D01*
Y227079D01*
X434079Y224540D01*
X439157D01*
X441697Y227079D01*
Y232157D01*
X436618D01*
X446775Y224540D02*
Y239775D01*
X456932Y224540D01*
Y239775D01*
X462010D02*
Y224540D01*
X469628D01*
X472167Y227079D01*
Y237236D01*
X469628Y239775D01*
X462010D01*
X422540Y110157D02*
X432697D01*
X427618Y115236D02*
Y105079D01*
X445393Y117775D02*
X440314D01*
X437775Y115236D01*
Y105079D01*
X440314Y102540D01*
X445393D01*
X447932Y105079D01*
Y115236D01*
X445393Y117775D01*
X453010D02*
Y105079D01*
X455549Y102540D01*
X460628D01*
X463167Y105079D01*
Y117775D01*
X468245D02*
X478402D01*
X473324D01*
Y102540D01*
X483480D02*
X488559D01*
X486020D01*
Y117775D01*
X483480Y115236D01*
X39697Y171236D02*
X37157Y173775D01*
X32079D01*
X29540Y171236D01*
Y161079D01*
X32079Y158540D01*
X37157D01*
X39697Y161079D01*
Y166157D01*
X34618D01*
X44775Y158540D02*
Y173775D01*
X54932Y158540D01*
Y173775D01*
X60010D02*
Y158540D01*
X67628D01*
X70167Y161079D01*
Y171236D01*
X67628Y173775D01*
X60010D01*
X19540Y334157D02*
X29697D01*
X24618Y339236D02*
Y329079D01*
X34775Y341775D02*
Y331618D01*
X39853Y326540D01*
X44932Y331618D01*
Y341775D01*
X50010D02*
X55089D01*
X52549D01*
Y326540D01*
X50010D01*
X55089D01*
X62706D02*
Y341775D01*
X72863Y326540D01*
Y341775D01*
X263843Y214618D02*
Y199382D01*
X274000D01*
X279078D02*
X284157D01*
X281618D01*
Y214618D01*
X279078Y212078D01*
X153000Y104922D02*
Y115078D01*
X150461Y117618D01*
X145382D01*
X142843Y115078D01*
Y104922D01*
X145382Y102382D01*
X150461D01*
X147922Y107461D02*
X153000Y102382D01*
X150461D02*
X153000Y104922D01*
X158078Y102382D02*
X163157D01*
X160618D01*
Y117618D01*
X158078Y115078D01*
X154461Y476078D02*
X151922Y478618D01*
X146843D01*
X144304Y476078D01*
Y465922D01*
X146843Y463382D01*
X151922D01*
X154461Y465922D01*
X169696Y478618D02*
X164618Y476078D01*
X159539Y471000D01*
Y465922D01*
X162078Y463382D01*
X167157D01*
X169696Y465922D01*
Y468461D01*
X167157Y471000D01*
X159539D01*
X154461Y331922D02*
Y342078D01*
X151922Y344618D01*
X146843D01*
X144304Y342078D01*
Y331922D01*
X146843Y329383D01*
X151922D01*
X149382Y334461D02*
X154461Y329383D01*
X151922D02*
X154461Y331922D01*
X169696Y329383D02*
X159539D01*
X169696Y339539D01*
Y342078D01*
X167157Y344618D01*
X162078D01*
X159539Y342078D01*
X384461Y242078D02*
X381922Y244618D01*
X376843D01*
X374304Y242078D01*
Y231922D01*
X376843Y229382D01*
X381922D01*
X384461Y231922D01*
X389539D02*
X392078Y229382D01*
X397157D01*
X399696Y231922D01*
Y242078D01*
X397157Y244618D01*
X392078D01*
X389539Y242078D01*
Y239539D01*
X392078Y237000D01*
X399696D01*
X259304Y454618D02*
Y439383D01*
X269461D01*
X284696D02*
X274539D01*
X284696Y449539D01*
Y452078D01*
X282157Y454618D01*
X277078D01*
X274539Y452078D01*
X153791Y237356D02*
X151251Y239895D01*
X146173D01*
X143634Y237356D01*
Y227199D01*
X146173Y224660D01*
X151251D01*
X153791Y227199D01*
X169026Y239895D02*
X158869D01*
Y232278D01*
X163947Y234817D01*
X166487D01*
X169026Y232278D01*
Y227199D01*
X166487Y224660D01*
X161408D01*
X158869Y227199D01*
M02*
