M48
;Layer_Color=9474304
;FILE_FORMAT=4:4
METRIC,LZ
;TYPE=PLATED
T01F00S00C0.3000
T02F00S00C1.5000
%
T01
X00108225Y00107049
Y00117049
Y00127049
Y00137049
X00117677Y00142479
Y00155178
X001178Y00118236
X0014223Y0012995
Y0016805
X00137433Y00189455
Y00199455
Y00209455
X00119Y00242
X0012Y00266
X00121Y0029
X0012Y00313
Y00338
X00119353Y00346408
X00109778Y00345221
Y00335221
Y00355221
Y00365221
X0011923Y0037065
Y0038335
X0014423Y0039605
Y0035795
X00196735
X00199Y00313
X00224415Y00298915
X00226Y00286
X00248Y00291
X00255Y00294
X0028Y0028
X00263Y00262
Y00239
X00238
Y00262
X00215Y00257
X00206Y00265
X00215Y0023
X00185Y00225
X00177268Y00225199
X00229Y00202
X0024904Y00212
X00278Y00221
X0029925Y0022275
X00312Y00247
X00328927Y00238914
X00328747Y00230707
X00329913Y00255135
X00330093Y00263342
X0032982Y00316793
X0033Y00325
X00324147Y00333498
X0031594Y00333678
X00282Y00322
X00245Y00326
X00286Y0037
X00296Y0039
X00285Y00417
X00194Y00431
Y00441
Y00451
X00345Y00312
X0038Y00325
X00395
X00405Y0031
Y00295
X003922Y00279583
X0038Y0028
Y0022
X00395
X00405Y00205
Y0019
X003922Y00174583
X0038Y00175
X00348Y0018
X00341188Y00205242
X00341368Y00213449
X00312Y00171
X00289Y00143
X00266Y001515
X00249Y00144
X00195Y00132
X0020425Y0017025
X00387Y00112
T02
X0005Y002
Y003
X0045
X00452Y00357
X00451Y002
X00455Y00143
M30
