G04*
G04 #@! TF.GenerationSoftware,Altium Limited,Altium Designer,24.1.2 (44)*
G04*
G04 Layer_Physical_Order=3*
G04 Layer_Color=36540*
%FSLAX44Y44*%
%MOMM*%
G71*
G04*
G04 #@! TF.SameCoordinates,4217E398-C2CF-4D03-8A17-56E4B4A10716*
G04*
G04*
G04 #@! TF.FilePolarity,Positive*
G04*
G01*
G75*
%ADD11C,0.2540*%
%ADD23C,4.0000*%
%ADD24C,0.6000*%
%ADD29C,1.0000*%
D11*
X228525Y298475D02*
X242270Y284730D01*
X258770D01*
X224856Y298475D02*
X228525D01*
X224415Y298915D02*
X224856Y298475D01*
X258770Y284730D02*
X307520Y235980D01*
Y218262D02*
Y235980D01*
X283988Y194730D02*
X307520Y218262D01*
X249702Y206500D02*
X261472Y194730D01*
X283988D01*
X249702Y206500D02*
Y211338D01*
X249040Y212000D02*
X249702Y211338D01*
D23*
X452000Y357000D02*
D03*
X455000Y143000D02*
D03*
X450000Y300000D02*
D03*
X451000Y200000D02*
D03*
X50000D02*
D03*
Y300000D02*
D03*
D24*
X117677Y142479D02*
D03*
Y155178D02*
D03*
X108225Y137049D02*
D03*
Y127049D02*
D03*
Y117049D02*
D03*
Y107049D02*
D03*
X117800Y118236D02*
D03*
X119353Y346408D02*
D03*
X109778Y335221D02*
D03*
Y345221D02*
D03*
Y355221D02*
D03*
Y365221D02*
D03*
X185000Y225000D02*
D03*
X177268Y225199D02*
D03*
X324147Y333498D02*
D03*
X315940Y333678D02*
D03*
X341368Y213449D02*
D03*
X341188Y205242D02*
D03*
X328927Y238914D02*
D03*
X328747Y230707D02*
D03*
X330093Y263342D02*
D03*
X329913Y255135D02*
D03*
X329820Y316793D02*
D03*
X380000Y175000D02*
D03*
Y220000D02*
D03*
X405000Y190000D02*
D03*
Y205000D02*
D03*
X395000Y220000D02*
D03*
X392200Y174583D02*
D03*
Y279583D02*
D03*
X395000Y325000D02*
D03*
X405000Y310000D02*
D03*
Y295000D02*
D03*
X380000Y325000D02*
D03*
X137433Y199455D02*
D03*
Y189455D02*
D03*
Y209455D02*
D03*
X194000Y431000D02*
D03*
Y451000D02*
D03*
X280000Y280000D02*
D03*
X263000Y262000D02*
D03*
Y239000D02*
D03*
X238000D02*
D03*
Y262000D02*
D03*
X206000Y265000D02*
D03*
X226000Y286000D02*
D03*
X215000Y257000D02*
D03*
X330000Y325000D02*
D03*
X380000Y280000D02*
D03*
X285000Y417000D02*
D03*
X348000Y180000D02*
D03*
X278000Y221000D02*
D03*
X266000Y151500D02*
D03*
X255000Y294000D02*
D03*
X245000Y326000D02*
D03*
X248000Y291000D02*
D03*
X194000Y441000D02*
D03*
X119230Y383350D02*
D03*
Y370650D02*
D03*
X387000Y112000D02*
D03*
X215000Y230000D02*
D03*
X312000Y247000D02*
D03*
X345000Y312000D02*
D03*
X196735Y357950D02*
D03*
X195000Y132000D02*
D03*
X142230Y168050D02*
D03*
Y129950D02*
D03*
X144230Y357950D02*
D03*
Y396050D02*
D03*
X249000Y144000D02*
D03*
X121000Y290000D02*
D03*
X286000Y370000D02*
D03*
X296000Y390000D02*
D03*
X282000Y322000D02*
D03*
X289000Y143000D02*
D03*
X120000Y338000D02*
D03*
Y313000D02*
D03*
X119000Y242000D02*
D03*
X199000Y313000D02*
D03*
X224415Y298915D02*
D03*
X120000Y266000D02*
D03*
X299250Y222750D02*
D03*
X312000Y171000D02*
D03*
X249040Y212000D02*
D03*
X204250Y170250D02*
D03*
X229000Y202000D02*
D03*
D29*
X168324Y220000D02*
X173324Y215000D01*
X200000D02*
X215000Y230000D01*
X111142Y197306D02*
X133836Y220000D01*
X168324D01*
X173324Y215000D02*
X200000D01*
X111142Y177858D02*
Y197306D01*
Y177858D02*
X121110Y167890D01*
X273000Y249000D02*
X299250Y222750D01*
X119000Y242000D02*
X214142D01*
X221142Y249000D02*
X273000D01*
X214142Y242000D02*
X221142Y249000D01*
X179000Y265000D02*
X206000D01*
X144230Y299770D02*
X179000Y265000D01*
X379000Y112000D02*
X387000D01*
X320000Y171000D02*
X379000Y112000D01*
X312000Y171000D02*
X320000D01*
X172000Y311000D02*
X197000Y286000D01*
X226000D01*
X144230Y382770D02*
Y396050D01*
X172000Y311000D02*
Y355000D01*
X144230Y382770D02*
X172000Y355000D01*
X127770Y161230D02*
X134000Y155000D01*
X127770Y161230D02*
Y161716D01*
X121596Y167890D02*
X127770Y161716D01*
X121110Y167890D02*
X121596D01*
X134000Y144000D02*
Y155000D01*
Y144000D02*
X142230Y135770D01*
Y131950D02*
Y135770D01*
X144230Y299770D02*
Y357950D01*
X196735D02*
X199000Y355685D01*
Y313000D02*
Y355685D01*
X204250Y141250D02*
Y170250D01*
X195000Y132000D02*
X204250Y141250D01*
X169640Y170050D02*
X201590Y202000D01*
X142230Y170050D02*
X169640D01*
X201590Y202000D02*
X229000D01*
M02*
