G04*
G04 #@! TF.GenerationSoftware,Altium Limited,Altium Designer,24.1.2 (44)*
G04*
G04 Layer_Physical_Order=1*
G04 Layer_Color=255*
%FSLAX44Y44*%
%MOMM*%
G71*
G04*
G04 #@! TF.SameCoordinates,4217E398-C2CF-4D03-8A17-56E4B4A10716*
G04*
G04*
G04 #@! TF.FilePolarity,Positive*
G04*
G01*
G75*
%ADD10C,0.2000*%
%ADD11C,0.2540*%
%ADD12R,2.1000X0.6000*%
%ADD13R,2.5500X3.7500*%
%ADD14R,3.8500X5.5000*%
%ADD15R,0.9000X2.5000*%
%ADD22C,0.5000*%
%ADD23C,4.0000*%
%ADD24C,0.6000*%
G36*
X200000Y425000D02*
X175000D01*
Y455000D01*
X200000D01*
Y425000D01*
D02*
G37*
G36*
X165000Y430000D02*
X185000Y410000D01*
X190096Y394712D01*
X188927Y393089D01*
X175596D01*
X175329Y393909D01*
X175000Y395012D01*
Y400000D01*
X160000Y415000D01*
X140000D01*
X126050Y401050D01*
X115500D01*
Y391050D01*
X115500Y391050D01*
X115500D01*
X114497Y389497D01*
X100000Y375000D01*
Y325000D01*
X125000Y300000D01*
X205000D01*
X221711Y283289D01*
X221761Y283168D01*
X223168Y281761D01*
X223289Y281711D01*
X225000Y280000D01*
X275000D01*
Y279005D01*
X275761Y277168D01*
X277168Y275761D01*
X279005Y275000D01*
X280995D01*
X282832Y275761D01*
X284239Y277168D01*
X285000Y279005D01*
Y280000D01*
X290000D01*
X305000Y265000D01*
X320000D01*
Y245000D01*
Y240000D01*
X320000Y236414D01*
X318586Y235000D01*
X290000D01*
X280000Y245000D01*
X215000D01*
X200000Y260000D01*
X150000D01*
Y250000D01*
X173333Y220833D01*
X175000Y220000D01*
X190000D01*
X195841Y165488D01*
X194504Y164000D01*
X173333D01*
X172118Y167191D01*
X170000Y200000D01*
X160000Y210000D01*
X155000Y220000D01*
X140000Y235000D01*
X85000D01*
X30000Y290000D01*
Y335000D01*
X70000Y375000D01*
Y455000D01*
X165000D01*
Y430000D01*
D02*
G37*
G36*
X139006Y387939D02*
Y365805D01*
X138757Y365555D01*
X123780D01*
Y362950D01*
X115500D01*
Y352950D01*
X123780D01*
Y343554D01*
X122572Y342346D01*
X120995Y343000D01*
X119005D01*
X117168Y342239D01*
X116458Y341529D01*
X114772D01*
Y332592D01*
X113234Y331054D01*
X104837D01*
Y368174D01*
X112860Y376197D01*
Y384178D01*
X117390Y388709D01*
X124208D01*
X138104Y388834D01*
X139006Y387939D01*
D02*
G37*
G36*
X243000Y343000D02*
X241000Y341000D01*
X204000D01*
Y342000D01*
X191000Y355000D01*
X175489D01*
X174708Y390142D01*
X175596Y391050D01*
X198500D01*
Y400000D01*
X240000D01*
X243000Y343000D01*
D02*
G37*
G36*
X477000Y392000D02*
Y336000D01*
X370000D01*
X327502Y337214D01*
X326979Y337737D01*
X325141Y338498D01*
X323152D01*
X321315Y337737D01*
X320979Y337401D01*
X319238Y337450D01*
X318772Y337916D01*
X316935Y338678D01*
X314946D01*
X313108Y337916D01*
X312825Y337634D01*
X300000Y338000D01*
X297000Y341000D01*
Y385002D01*
X298832Y385761D01*
X300239Y387168D01*
X301000Y389005D01*
Y390995D01*
X300239Y392832D01*
X298832Y394239D01*
X297000Y394998D01*
Y398000D01*
X471000D01*
X477000Y392000D01*
D02*
G37*
G36*
X410692Y276910D02*
X409247Y275466D01*
X372080D01*
X371185Y276366D01*
X371469Y328124D01*
X371758Y328413D01*
X410692D01*
Y276910D01*
D02*
G37*
G36*
X156433Y212575D02*
Y185455D01*
X131433D01*
Y215455D01*
X154993D01*
X156433Y212575D01*
D02*
G37*
G36*
X410692Y171910D02*
X409247Y170466D01*
X372080D01*
X371185Y171366D01*
X371469Y223124D01*
X371758Y223413D01*
X410692D01*
Y171910D01*
D02*
G37*
G36*
X136538Y159760D02*
Y138548D01*
X135906Y137384D01*
X122227D01*
Y134950D01*
X113500D01*
Y124950D01*
X122227D01*
Y115383D01*
X120202Y113358D01*
X113219D01*
Y104421D01*
X111680Y102882D01*
X103284D01*
Y140003D01*
X111306Y148025D01*
Y156006D01*
X115837Y160537D01*
X122654D01*
X135636Y160654D01*
X136538Y159760D01*
D02*
G37*
G36*
X480000Y108000D02*
X474000Y102000D01*
X300000D01*
Y159000D01*
X303000Y162000D01*
X373000Y164000D01*
X480000D01*
Y108000D01*
D02*
G37*
G36*
X246000Y148071D02*
X244761Y146832D01*
X244000Y144995D01*
Y143005D01*
X244761Y141168D01*
X246000Y139929D01*
Y103000D01*
X243000Y100000D01*
X200000D01*
X173000Y127000D01*
Y161000D01*
X246000D01*
Y148071D01*
D02*
G37*
%LPC*%
G36*
X120995Y271000D02*
X119005D01*
X117168Y270239D01*
X115761Y268832D01*
X115000Y266995D01*
Y265005D01*
X115761Y263168D01*
X117168Y261761D01*
X119005Y261000D01*
X120995D01*
X122832Y261761D01*
X124239Y263168D01*
X125000Y265005D01*
Y266995D01*
X124239Y268832D01*
X122832Y270239D01*
X120995Y271000D01*
D02*
G37*
G36*
X206995Y270000D02*
X205005D01*
X203168Y269239D01*
X201761Y267832D01*
X201000Y265995D01*
Y264005D01*
X201761Y262168D01*
X203168Y260761D01*
X205005Y260000D01*
X206995D01*
X208832Y260761D01*
X210239Y262168D01*
X211000Y264005D01*
Y265995D01*
X210239Y267832D01*
X208832Y269239D01*
X206995Y270000D01*
D02*
G37*
G36*
X263995Y267000D02*
X262005D01*
X260168Y266239D01*
X258761Y264832D01*
X258000Y262995D01*
Y261005D01*
X258761Y259168D01*
X260168Y257761D01*
X262005Y257000D01*
X263995D01*
X265832Y257761D01*
X267239Y259168D01*
X268000Y261005D01*
Y262995D01*
X267239Y264832D01*
X265832Y266239D01*
X263995Y267000D01*
D02*
G37*
G36*
X238995D02*
X237005D01*
X235168Y266239D01*
X233761Y264832D01*
X233000Y262995D01*
Y261005D01*
X233761Y259168D01*
X235168Y257761D01*
X237005Y257000D01*
X238995D01*
X240832Y257761D01*
X242239Y259168D01*
X243000Y261005D01*
Y262995D01*
X242239Y264832D01*
X240832Y266239D01*
X238995Y267000D01*
D02*
G37*
G36*
X215995Y262000D02*
X214005D01*
X212168Y261239D01*
X210761Y259832D01*
X210000Y257995D01*
Y256005D01*
X210761Y254168D01*
X212168Y252761D01*
X214005Y252000D01*
X215995D01*
X217832Y252761D01*
X219239Y254168D01*
X220000Y256005D01*
Y257995D01*
X219239Y259832D01*
X217832Y261239D01*
X215995Y262000D01*
D02*
G37*
G36*
X119994Y247000D02*
X118005D01*
X116168Y246239D01*
X114761Y244832D01*
X114000Y242995D01*
Y241005D01*
X114761Y239168D01*
X116168Y237761D01*
X118005Y237000D01*
X119994D01*
X121832Y237761D01*
X123239Y239168D01*
X124000Y241005D01*
Y242995D01*
X123239Y244832D01*
X121832Y246239D01*
X119994Y247000D01*
D02*
G37*
%LPD*%
D10*
X386000Y357000D02*
X452000D01*
X386000D02*
Y358250D01*
X322750Y370000D02*
X374250D01*
X386000Y358250D01*
X322750Y130000D02*
X324000Y131250D01*
X386000Y143000D02*
X387000Y142000D01*
X374250Y131250D02*
X386000Y143000D01*
X387000Y144000D01*
X196735Y357950D02*
X211200D01*
X182270D02*
X196735D01*
X211200D02*
X223250Y370000D01*
X182270Y370650D02*
Y383350D01*
Y357950D02*
Y370650D01*
X221300Y131950D02*
X223250Y130000D01*
D11*
X22540Y52534D02*
Y32540D01*
X32537D01*
X35869Y35872D01*
Y49201D01*
X32537Y52534D01*
X22540D01*
X42534Y32540D02*
Y45869D01*
X49198Y52534D01*
X55863Y45869D01*
Y32540D01*
Y42537D01*
X42534D01*
X62527Y52534D02*
Y32540D01*
X75856D01*
X82521Y52534D02*
Y39204D01*
X89185Y32540D01*
X95850Y39204D01*
Y52534D01*
X102514Y32540D02*
Y45869D01*
X109179Y52534D01*
X115843Y45869D01*
Y32540D01*
Y42537D01*
X102514D01*
X135837Y49201D02*
X132505Y52534D01*
X125840D01*
X122508Y49201D01*
Y35872D01*
X125840Y32540D01*
X132505D01*
X135837Y35872D01*
D12*
X126000Y168050D02*
D03*
Y155350D02*
D03*
Y142650D02*
D03*
Y129950D02*
D03*
X184000Y168050D02*
D03*
Y155350D02*
D03*
Y142650D02*
D03*
Y129950D02*
D03*
X186000Y357950D02*
D03*
Y370650D02*
D03*
Y383350D02*
D03*
Y396050D02*
D03*
X128000Y357950D02*
D03*
Y370650D02*
D03*
Y383350D02*
D03*
Y396050D02*
D03*
D13*
X386000Y357000D02*
D03*
Y303000D02*
D03*
Y143000D02*
D03*
Y197000D02*
D03*
D14*
X223250Y130000D02*
D03*
X322750D02*
D03*
X223250Y370000D02*
D03*
X322750D02*
D03*
D15*
X150500Y441000D02*
D03*
X181500D02*
D03*
X150500Y200000D02*
D03*
X181500D02*
D03*
D22*
X126000Y168050D02*
X133500D01*
X135500D02*
X142230D01*
X128553Y129950D02*
X142230D01*
X131730Y396050D02*
X144230D01*
X131730Y357950D02*
X144230D01*
D23*
X452000Y357000D02*
D03*
X455000Y143000D02*
D03*
X450000Y300000D02*
D03*
X451000Y200000D02*
D03*
X50000D02*
D03*
Y300000D02*
D03*
D24*
X117677Y142479D02*
D03*
Y155178D02*
D03*
X108225Y137049D02*
D03*
Y127049D02*
D03*
Y117049D02*
D03*
Y107049D02*
D03*
X117800Y118236D02*
D03*
X119353Y346408D02*
D03*
X109778Y335221D02*
D03*
Y345221D02*
D03*
Y355221D02*
D03*
Y365221D02*
D03*
X185000Y225000D02*
D03*
X177268Y225199D02*
D03*
X324147Y333498D02*
D03*
X315940Y333678D02*
D03*
X341368Y213449D02*
D03*
X341188Y205242D02*
D03*
X328927Y238914D02*
D03*
X328747Y230707D02*
D03*
X330093Y263342D02*
D03*
X329913Y255135D02*
D03*
X329820Y316793D02*
D03*
X380000Y175000D02*
D03*
Y220000D02*
D03*
X405000Y190000D02*
D03*
Y205000D02*
D03*
X395000Y220000D02*
D03*
X392200Y174583D02*
D03*
Y279583D02*
D03*
X395000Y325000D02*
D03*
X405000Y310000D02*
D03*
Y295000D02*
D03*
X380000Y325000D02*
D03*
X137433Y199455D02*
D03*
Y189455D02*
D03*
Y209455D02*
D03*
X194000Y431000D02*
D03*
Y451000D02*
D03*
X280000Y280000D02*
D03*
X263000Y262000D02*
D03*
Y239000D02*
D03*
X238000D02*
D03*
Y262000D02*
D03*
X206000Y265000D02*
D03*
X226000Y286000D02*
D03*
X215000Y257000D02*
D03*
X330000Y325000D02*
D03*
X380000Y280000D02*
D03*
X285000Y417000D02*
D03*
X348000Y180000D02*
D03*
X278000Y221000D02*
D03*
X266000Y151500D02*
D03*
X255000Y294000D02*
D03*
X245000Y326000D02*
D03*
X248000Y291000D02*
D03*
X194000Y441000D02*
D03*
X119230Y383350D02*
D03*
Y370650D02*
D03*
X387000Y112000D02*
D03*
X215000Y230000D02*
D03*
X312000Y247000D02*
D03*
X345000Y312000D02*
D03*
X196735Y357950D02*
D03*
X195000Y132000D02*
D03*
X142230Y168050D02*
D03*
Y129950D02*
D03*
X144230Y357950D02*
D03*
Y396050D02*
D03*
X249000Y144000D02*
D03*
X121000Y290000D02*
D03*
X286000Y370000D02*
D03*
X296000Y390000D02*
D03*
X282000Y322000D02*
D03*
X289000Y143000D02*
D03*
X120000Y338000D02*
D03*
Y313000D02*
D03*
X119000Y242000D02*
D03*
X199000Y313000D02*
D03*
X224415Y298915D02*
D03*
X120000Y266000D02*
D03*
X299250Y222750D02*
D03*
X312000Y171000D02*
D03*
X249040Y212000D02*
D03*
X204250Y170250D02*
D03*
X229000Y202000D02*
D03*
M02*
