G04*
G04 #@! TF.GenerationSoftware,Altium Limited,Altium Designer,24.1.2 (44)*
G04*
G04 Layer_Color=32896*
%FSLAX44Y44*%
%MOMM*%
G71*
G04*
G04 #@! TF.SameCoordinates,4217E398-C2CF-4D03-8A17-56E4B4A10716*
G04*
G04*
G04 #@! TF.FilePolarity,Positive*
G04*
G01*
G75*
%ADD10C,0.2000*%
%ADD11C,0.2540*%
%ADD46C,0.3500*%
D10*
X274000Y276000D02*
X276000Y274000D01*
X272000Y276000D02*
X274000D01*
X224000D02*
X228000D01*
X224000Y272000D02*
Y276000D01*
Y224000D02*
Y228000D01*
Y224000D02*
X228000D01*
X272000D02*
X276000D01*
Y228000D01*
Y272000D02*
Y274000D01*
X253000Y153000D02*
Y187000D01*
X233000Y153000D02*
X253000D01*
X233000D02*
Y187000D01*
X253000D01*
X276000Y153000D02*
Y187000D01*
X256000Y153000D02*
X276000D01*
X256000D02*
Y187000D01*
X276000D01*
X299000Y153000D02*
Y187000D01*
X279000Y153000D02*
X299000D01*
X279000D02*
Y187000D01*
X299000D01*
X302000Y153000D02*
Y187000D01*
X322000D01*
Y153000D02*
Y187000D01*
X302000Y153000D02*
X322000D01*
X345000D02*
Y187000D01*
X325000Y153000D02*
X345000D01*
X325000D02*
Y187000D01*
X345000D01*
X292000Y269000D02*
X328000D01*
Y249000D02*
Y269000D01*
X292000Y249000D02*
X328000D01*
X292000D02*
Y269000D01*
X291000Y197000D02*
X339000D01*
X291000D02*
Y221000D01*
X339000D01*
Y197000D02*
Y221000D01*
X292000Y225000D02*
X328000D01*
X292000D02*
Y245000D01*
X328000D01*
Y225000D02*
Y245000D01*
X291000Y311000D02*
X327000D01*
X291000D02*
Y331000D01*
X327000D01*
Y311000D02*
Y331000D01*
X292000Y358000D02*
X328000D01*
Y338000D02*
Y358000D01*
X292000Y338000D02*
X328000D01*
X292000D02*
Y358000D01*
Y362000D02*
X326000D01*
X292000D02*
Y382000D01*
X326000D01*
Y362000D02*
Y382000D01*
X247000Y299500D02*
Y333500D01*
X267000D01*
Y299500D02*
Y333500D01*
X247000Y299500D02*
X267000D01*
X247000Y357000D02*
X281000D01*
Y337000D02*
Y357000D01*
X247000Y337000D02*
X281000D01*
X247000D02*
Y357000D01*
Y380000D02*
X281000D01*
Y360000D02*
Y380000D01*
X247000Y360000D02*
X281000D01*
X247000D02*
Y380000D01*
Y404000D02*
X281000D01*
Y384000D02*
Y404000D01*
X247000Y384000D02*
X281000D01*
X247000D02*
Y404000D01*
Y408000D02*
X281000D01*
X247000D02*
Y428000D01*
X281000D01*
Y408000D02*
Y428000D01*
X177000Y176000D02*
X213000D01*
X177000D02*
Y196000D01*
X213000D01*
Y176000D02*
Y196000D01*
X177000Y221000D02*
X211000D01*
Y201000D02*
Y221000D01*
X177000Y201000D02*
X211000D01*
X177000D02*
Y221000D01*
X172500Y245000D02*
X208500D01*
Y225000D02*
Y245000D01*
X172500Y225000D02*
X208500D01*
X172500D02*
Y245000D01*
X174000Y267500D02*
X208000D01*
X174000D02*
Y287500D01*
X208000D01*
Y267500D02*
Y287500D01*
X172000Y311500D02*
X208000D01*
Y291500D02*
Y311500D01*
X172000Y291500D02*
X208000D01*
X172000D02*
Y311500D01*
X131000Y232000D02*
X165000D01*
X131000D02*
Y252000D01*
X165000D01*
Y232000D02*
Y252000D01*
X131000Y256000D02*
X165000D01*
X131000D02*
Y276000D01*
X165000D01*
Y256000D02*
Y276000D01*
X131000Y300000D02*
X165000D01*
Y280000D02*
Y300000D01*
X131000Y280000D02*
X165000D01*
X131000D02*
Y300000D01*
X132000Y304000D02*
X166000D01*
X132000D02*
Y324000D01*
X166000D01*
Y304000D02*
Y324000D01*
X132000Y328000D02*
X166000D01*
X132000D02*
Y348000D01*
X166000D01*
Y328000D02*
Y348000D01*
D11*
X285460Y269540D02*
X282461D01*
X283960D01*
Y278537D01*
X285460Y277038D01*
X304382Y108956D02*
X319618D01*
Y116574D01*
X317078Y119113D01*
X312000D01*
X309461Y116574D01*
Y108956D01*
Y114035D02*
X304382Y119113D01*
Y124191D02*
Y129270D01*
Y126730D01*
X319618D01*
X317078Y124191D01*
X304382Y147044D02*
Y136887D01*
X314539Y147044D01*
X317078D01*
X319618Y144505D01*
Y139426D01*
X317078Y136887D01*
X327383Y108956D02*
X342618D01*
Y116574D01*
X340078Y119113D01*
X335000D01*
X332461Y116574D01*
Y108956D01*
Y114035D02*
X327383Y119113D01*
Y124191D02*
Y129270D01*
Y126730D01*
X342618D01*
X340078Y124191D01*
X342618Y136887D02*
Y147044D01*
X340078D01*
X329922Y136887D01*
X327383D01*
X281383Y108956D02*
X296618D01*
Y116574D01*
X294078Y119113D01*
X289000D01*
X286461Y116574D01*
Y108956D01*
Y114035D02*
X281383Y119113D01*
Y124191D02*
Y129270D01*
Y126730D01*
X296618D01*
X294078Y124191D01*
Y136887D02*
X296618Y139426D01*
Y144505D01*
X294078Y147044D01*
X291539D01*
X289000Y144505D01*
Y141966D01*
Y144505D01*
X286461Y147044D01*
X283922D01*
X281383Y144505D01*
Y139426D01*
X283922Y136887D01*
X258382Y108956D02*
X273617D01*
Y116574D01*
X271078Y119113D01*
X266000D01*
X263461Y116574D01*
Y108956D01*
Y114035D02*
X258382Y119113D01*
X273617Y124191D02*
Y134348D01*
X271078D01*
X260922Y124191D01*
X258382D01*
X235382Y108956D02*
X250618D01*
Y116574D01*
X248078Y119113D01*
X243000D01*
X240461Y116574D01*
Y108956D01*
Y114035D02*
X235382Y119113D01*
Y124191D02*
Y129270D01*
Y126730D01*
X250618D01*
X248078Y124191D01*
X235382Y136887D02*
Y141966D01*
Y139426D01*
X250618D01*
X248078Y136887D01*
X364279Y261442D02*
X366819Y263981D01*
X371897D01*
X374436Y261442D01*
Y251285D01*
X371897Y248746D01*
X366819D01*
X364279Y251285D01*
X359201Y248746D02*
X354123D01*
X356662D01*
Y263981D01*
X359201Y261442D01*
X346505Y248746D02*
X341427D01*
X343966D01*
Y263981D01*
X346505Y261442D01*
X364279Y213436D02*
X366819Y215975D01*
X371897D01*
X374436Y213436D01*
Y203279D01*
X371897Y200740D01*
X366819D01*
X364279Y203279D01*
X359201Y200740D02*
X354123D01*
X356662D01*
Y215975D01*
X359201Y213436D01*
X364279Y237312D02*
X366819Y239851D01*
X371897D01*
X374436Y237312D01*
Y227155D01*
X371897Y224616D01*
X366819D01*
X364279Y227155D01*
X349044Y224616D02*
X359201D01*
X349044Y234773D01*
Y237312D01*
X351583Y239851D01*
X356662D01*
X359201Y237312D01*
X364279Y323418D02*
X366819Y325957D01*
X371897D01*
X374436Y323418D01*
Y313261D01*
X371897Y310722D01*
X366819D01*
X364279Y313261D01*
X351583Y310722D02*
Y325957D01*
X359201Y318340D01*
X349044D01*
X364279Y350342D02*
X366819Y352881D01*
X371897D01*
X374436Y350342D01*
Y340185D01*
X371897Y337646D01*
X366819D01*
X364279Y340185D01*
X359201Y337646D02*
X354123D01*
X356662D01*
Y352881D01*
X359201Y350342D01*
X336348Y337646D02*
X346505D01*
X336348Y347803D01*
Y350342D01*
X338887Y352881D01*
X343966D01*
X346505Y350342D01*
X374436Y361522D02*
Y376757D01*
X366819D01*
X364279Y374218D01*
Y369140D01*
X366819Y366600D01*
X374436D01*
X369358D02*
X364279Y361522D01*
X359201Y374218D02*
X356662Y376757D01*
X351583D01*
X349044Y374218D01*
Y371679D01*
X351583Y369140D01*
X349044Y366600D01*
Y364061D01*
X351583Y361522D01*
X356662D01*
X359201Y364061D01*
Y366600D01*
X356662Y369140D01*
X359201Y371679D01*
Y374218D01*
X356662Y369140D02*
X351583D01*
X237524Y316008D02*
Y331243D01*
X229907D01*
X227367Y328704D01*
Y323625D01*
X229907Y321086D01*
X237524D01*
X232446D02*
X227367Y316008D01*
X212132Y331243D02*
X217211Y328704D01*
X222289Y323625D01*
Y318547D01*
X219750Y316008D01*
X214671D01*
X212132Y318547D01*
Y321086D01*
X214671Y323625D01*
X222289D01*
X237524Y339630D02*
Y354865D01*
X229907D01*
X227367Y352326D01*
Y347248D01*
X229907Y344708D01*
X237524D01*
X232446D02*
X227367Y339630D01*
X222289D02*
X217211D01*
X219750D01*
Y354865D01*
X222289Y352326D01*
X201975Y339630D02*
Y354865D01*
X209593Y347248D01*
X199436D01*
X237524Y362744D02*
Y377979D01*
X229907D01*
X227367Y375440D01*
Y370362D01*
X229907Y367822D01*
X237524D01*
X232446D02*
X227367Y362744D01*
X222289D02*
X217211D01*
X219750D01*
Y377979D01*
X222289Y375440D01*
X199436Y377979D02*
X204515Y375440D01*
X209593Y370362D01*
Y365283D01*
X207054Y362744D01*
X201975D01*
X199436Y365283D01*
Y367822D01*
X201975Y370362D01*
X209593D01*
X237524Y386620D02*
Y401855D01*
X229907D01*
X227367Y399316D01*
Y394238D01*
X229907Y391698D01*
X237524D01*
X232446D02*
X227367Y386620D01*
X222289D02*
X217211D01*
X219750D01*
Y401855D01*
X222289Y399316D01*
X199436Y401855D02*
X209593D01*
Y394238D01*
X204515Y396777D01*
X201975D01*
X199436Y394238D01*
Y389159D01*
X201975Y386620D01*
X207054D01*
X209593Y389159D01*
X237524Y410496D02*
Y425731D01*
X229907D01*
X227367Y423192D01*
Y418114D01*
X229907Y415574D01*
X237524D01*
X232446D02*
X227367Y410496D01*
X222289D02*
X217211D01*
X219750D01*
Y425731D01*
X222289Y423192D01*
X209593D02*
X207054Y425731D01*
X201975D01*
X199436Y423192D01*
Y420653D01*
X201975Y418114D01*
X199436Y415574D01*
Y413035D01*
X201975Y410496D01*
X207054D01*
X209593Y413035D01*
Y415574D01*
X207054Y418114D01*
X209593Y420653D01*
Y423192D01*
X207054Y418114D02*
X201975D01*
X206372Y122271D02*
Y137507D01*
X198755D01*
X196215Y134967D01*
Y129889D01*
X198755Y127350D01*
X206372D01*
X201294D02*
X196215Y122271D01*
X180980Y137507D02*
X191137D01*
Y129889D01*
X186059Y132428D01*
X183519D01*
X180980Y129889D01*
Y124811D01*
X183519Y122271D01*
X188598D01*
X191137Y124811D01*
X196215Y163860D02*
X198755Y166399D01*
X203833D01*
X206372Y163860D01*
Y153703D01*
X203833Y151164D01*
X198755D01*
X196215Y153703D01*
X191137Y163860D02*
X188598Y166399D01*
X183519D01*
X180980Y163860D01*
Y161321D01*
X183519Y158781D01*
X180980Y156242D01*
Y153703D01*
X183519Y151164D01*
X188598D01*
X191137Y153703D01*
Y156242D01*
X188598Y158781D01*
X191137Y161321D01*
Y163860D01*
X188598Y158781D02*
X183519D01*
X196215Y106075D02*
X198755Y108614D01*
X203833D01*
X206372Y106075D01*
Y95918D01*
X203833Y93379D01*
X198755D01*
X196215Y95918D01*
X191137Y106075D02*
X188598Y108614D01*
X183519D01*
X180980Y106075D01*
Y103536D01*
X183519Y100997D01*
X186059D01*
X183519D01*
X180980Y98457D01*
Y95918D01*
X183519Y93379D01*
X188598D01*
X191137Y95918D01*
X206372Y64486D02*
Y79722D01*
X198755D01*
X196215Y77182D01*
Y72104D01*
X198755Y69565D01*
X206372D01*
X201294D02*
X196215Y64486D01*
X183519D02*
Y79722D01*
X191137Y72104D01*
X180980D01*
X196215Y48290D02*
X198755Y50829D01*
X203833D01*
X206372Y48290D01*
Y38133D01*
X203833Y35594D01*
X198755D01*
X196215Y38133D01*
X191137Y50829D02*
X180980D01*
Y48290D01*
X191137Y38133D01*
Y35594D01*
X102620Y236098D02*
Y248594D01*
X96372D01*
X94289Y246511D01*
Y242346D01*
X96372Y240263D01*
X102620D01*
X98455D02*
X94289Y236098D01*
X90124D02*
X85959D01*
X88041D01*
Y248594D01*
X90124Y246511D01*
X102163Y259974D02*
Y272470D01*
X95915D01*
X93833Y270387D01*
Y266222D01*
X95915Y264139D01*
X102163D01*
X97998D02*
X93833Y259974D01*
X89667Y270387D02*
X87585Y272470D01*
X83420D01*
X81337Y270387D01*
Y268304D01*
X83420Y266222D01*
X85502D01*
X83420D01*
X81337Y264139D01*
Y262056D01*
X83420Y259974D01*
X87585D01*
X89667Y262056D01*
X102163Y284104D02*
Y296600D01*
X95915D01*
X93833Y294517D01*
Y290352D01*
X95915Y288269D01*
X102163D01*
X97998D02*
X93833Y284104D01*
X81337D02*
X89667D01*
X81337Y292434D01*
Y294517D01*
X83420Y296600D01*
X87585D01*
X89667Y294517D01*
X102038Y307980D02*
Y320476D01*
X95790D01*
X93708Y318393D01*
Y314228D01*
X95790Y312145D01*
X102038D01*
X97873D02*
X93708Y307980D01*
X89542D02*
X85377D01*
X87459D01*
Y320476D01*
X89542Y318393D01*
X79129D02*
X77046Y320476D01*
X72881D01*
X70798Y318393D01*
Y310062D01*
X72881Y307980D01*
X77046D01*
X79129Y310062D01*
Y318393D01*
X103179Y332110D02*
Y344605D01*
X96931D01*
X94849Y342523D01*
Y338358D01*
X96931Y336275D01*
X103179D01*
X99014D02*
X94849Y332110D01*
X90683Y334192D02*
X88601Y332110D01*
X84436D01*
X82353Y334192D01*
Y342523D01*
X84436Y344605D01*
X88601D01*
X90683Y342523D01*
Y340440D01*
X88601Y338358D01*
X82353D01*
D46*
X416500Y483493D02*
X409836D01*
X413168D01*
Y463500D01*
X416500D01*
X409836D01*
X386510Y480161D02*
X389842Y483493D01*
X396507D01*
X399839Y480161D01*
Y476829D01*
X396507Y473497D01*
X389842D01*
X386510Y470164D01*
Y466832D01*
X389842Y463500D01*
X396507D01*
X399839Y466832D01*
X379845Y483493D02*
Y463500D01*
X366516D01*
X346523Y483493D02*
X353187Y480161D01*
X359852Y473497D01*
Y466832D01*
X356519Y463500D01*
X349855D01*
X346523Y466832D01*
Y470164D01*
X349855Y473497D01*
X359852D01*
X326529Y463500D02*
X339858D01*
X326529Y476829D01*
Y480161D01*
X329861Y483493D01*
X336526D01*
X339858Y480161D01*
X319865D02*
X316532Y483493D01*
X309868D01*
X306535Y480161D01*
Y476829D01*
X309868Y473497D01*
X313200D01*
X309868D01*
X306535Y470164D01*
Y466832D01*
X309868Y463500D01*
X316532D01*
X319865Y466832D01*
X286542Y483493D02*
X293206Y480161D01*
X299871Y473497D01*
Y466832D01*
X296539Y463500D01*
X289874D01*
X286542Y466832D01*
Y470164D01*
X289874Y473497D01*
X299871D01*
X279877Y463500D02*
Y476829D01*
X273213Y483493D01*
X266548Y476829D01*
Y463500D01*
Y473497D01*
X279877D01*
X239890Y483493D02*
Y463500D01*
X229893D01*
X226561Y466832D01*
Y480161D01*
X229893Y483493D01*
X239890D01*
X206568D02*
X219897D01*
Y463500D01*
X206568D01*
X219897Y473497D02*
X213232D01*
X199903Y463500D02*
Y483493D01*
X193239Y476829D01*
X186574Y483493D01*
Y463500D01*
X169913Y483493D02*
X176577D01*
X179910Y480161D01*
Y466832D01*
X176577Y463500D01*
X169913D01*
X166581Y466832D01*
Y480161D01*
X169913Y483493D01*
X139923D02*
Y470164D01*
X133258Y463500D01*
X126593Y470164D01*
Y483493D01*
X119929Y463500D02*
X113264D01*
X116597D01*
Y483493D01*
X119929Y480161D01*
X103268Y483493D02*
X96603D01*
X99935D01*
Y463500D01*
X103268D01*
X96603D01*
X86606D02*
X79942D01*
X83274D01*
Y483493D01*
X86606Y480161D01*
M02*
